<mxfile host="app.diagrams.net" modified="2024-03-24T10:44:50.272Z" agent="Mozilla/5.0 (Windows NT 10.0; Win64; x64; rv:124.0) Gecko/20100101 Firefox/124.0" etag="pnZ5UX2grvjVFKLdBtMW" version="24.0.8" type="github">
  <diagram id="C5RBs43oDa-KdzZeNtuy" name="Page-1">
    <mxGraphModel dx="3176" dy="5032" grid="1" gridSize="10" guides="1" tooltips="1" connect="1" arrows="1" fold="1" page="1" pageScale="1" pageWidth="2339" pageHeight="3300" math="0" shadow="0">
      <root>
        <mxCell id="WIyWlLk6GJQsqaUBKTNV-0" />
        <mxCell id="WIyWlLk6GJQsqaUBKTNV-1" parent="WIyWlLk6GJQsqaUBKTNV-0" />
        <mxCell id="c2UusswDaAf2Ig5xb_kL-22" value="package" style="shape=folder;fontStyle=1;spacingTop=10;tabWidth=40;tabHeight=14;tabPosition=left;html=1;whiteSpace=wrap;fontColor=default;" parent="WIyWlLk6GJQsqaUBKTNV-1" vertex="1">
          <mxGeometry x="10" y="-3270" width="2370" height="2260" as="geometry" />
        </mxCell>
        <mxCell id="c2UusswDaAf2Ig5xb_kL-9" value="" style="shape=folder;fontStyle=1;spacingTop=10;tabWidth=40;tabHeight=14;tabPosition=left;html=1;whiteSpace=wrap;fontColor=default;" parent="WIyWlLk6GJQsqaUBKTNV-1" vertex="1">
          <mxGeometry x="50" y="-3160" width="2260" height="1090" as="geometry" />
        </mxCell>
        <mxCell id="JLcb8wGAHAgGzzpa8HeB-1" value="&amp;lt;Abstract&amp;gt;Card" style="swimlane;fontStyle=1;align=center;verticalAlign=top;childLayout=stackLayout;horizontal=1;startSize=26;horizontalStack=0;resizeParent=1;resizeParentMax=0;resizeLast=0;collapsible=1;marginBottom=0;whiteSpace=wrap;html=1;fontColor=default;" parent="WIyWlLk6GJQsqaUBKTNV-1" vertex="1">
          <mxGeometry x="590.5" y="-3080" width="160" height="180" as="geometry" />
        </mxCell>
        <mxCell id="JLcb8wGAHAgGzzpa8HeB-2" value="&lt;br&gt;&lt;div&gt;- IsFront : boolean&lt;/div&gt;&lt;div&gt;&lt;br&gt;&lt;/div&gt;" style="text;strokeColor=none;fillColor=none;align=left;verticalAlign=top;spacingLeft=4;spacingRight=4;overflow=hidden;rotatable=0;points=[[0,0.5],[1,0.5]];portConstraint=eastwest;whiteSpace=wrap;html=1;fontColor=default;" parent="JLcb8wGAHAgGzzpa8HeB-1" vertex="1">
          <mxGeometry y="26" width="160" height="94" as="geometry" />
        </mxCell>
        <mxCell id="JLcb8wGAHAgGzzpa8HeB-3" value="" style="line;strokeWidth=1;fillColor=none;align=left;verticalAlign=middle;spacingTop=-1;spacingLeft=3;spacingRight=3;rotatable=0;labelPosition=right;points=[];portConstraint=eastwest;strokeColor=inherit;fontColor=default;" parent="JLcb8wGAHAgGzzpa8HeB-1" vertex="1">
          <mxGeometry y="120" width="160" height="8" as="geometry" />
        </mxCell>
        <mxCell id="JLcb8wGAHAgGzzpa8HeB-4" value="&lt;div&gt;+getAngle(String): Angle&lt;br&gt;&lt;/div&gt;&lt;div&gt;+isFront():boolean&lt;/div&gt;" style="text;strokeColor=none;fillColor=none;align=left;verticalAlign=top;spacingLeft=4;spacingRight=4;overflow=hidden;rotatable=0;points=[[0,0.5],[1,0.5]];portConstraint=eastwest;whiteSpace=wrap;html=1;fontColor=default;" parent="JLcb8wGAHAgGzzpa8HeB-1" vertex="1">
          <mxGeometry y="128" width="160" height="52" as="geometry" />
        </mxCell>
        <mxCell id="JLcb8wGAHAgGzzpa8HeB-5" value="Angle" style="swimlane;fontStyle=1;align=center;verticalAlign=top;childLayout=stackLayout;horizontal=1;startSize=26;horizontalStack=0;resizeParent=1;resizeParentMax=0;resizeLast=0;collapsible=1;marginBottom=0;whiteSpace=wrap;html=1;fontColor=default;" parent="WIyWlLk6GJQsqaUBKTNV-1" vertex="1">
          <mxGeometry x="880.5" y="-3050" width="160" height="130" as="geometry" />
        </mxCell>
        <mxCell id="JLcb8wGAHAgGzzpa8HeB-6" value="&lt;div&gt;- IsCovered : boolean&lt;/div&gt;-resource: Resource" style="text;strokeColor=none;fillColor=none;align=left;verticalAlign=top;spacingLeft=4;spacingRight=4;overflow=hidden;rotatable=0;points=[[0,0.5],[1,0.5]];portConstraint=eastwest;whiteSpace=wrap;html=1;fontColor=default;" parent="JLcb8wGAHAgGzzpa8HeB-5" vertex="1">
          <mxGeometry y="26" width="160" height="54" as="geometry" />
        </mxCell>
        <mxCell id="DYIzedRVmLQqtgvzEhJK-0" value="Extends" style="endArrow=block;endSize=16;endFill=0;html=1;rounded=0;entryX=0.5;entryY=0;entryDx=0;entryDy=0;fontColor=default;" edge="1" parent="JLcb8wGAHAgGzzpa8HeB-5" target="JLcb8wGAHAgGzzpa8HeB-9">
          <mxGeometry width="160" relative="1" as="geometry">
            <mxPoint x="159.5" y="60" as="sourcePoint" />
            <mxPoint x="319.5" y="60" as="targetPoint" />
            <Array as="points">
              <mxPoint x="730.5" y="60" />
            </Array>
          </mxGeometry>
        </mxCell>
        <mxCell id="JLcb8wGAHAgGzzpa8HeB-7" value="" style="line;strokeWidth=1;fillColor=none;align=left;verticalAlign=middle;spacingTop=-1;spacingLeft=3;spacingRight=3;rotatable=0;labelPosition=right;points=[];portConstraint=eastwest;strokeColor=inherit;fontColor=default;" parent="JLcb8wGAHAgGzzpa8HeB-5" vertex="1">
          <mxGeometry y="80" width="160" height="10" as="geometry" />
        </mxCell>
        <mxCell id="EF45_xodWaJwRy3mG7dY-4" value="&lt;div align=&quot;left&quot;&gt;+getResource(): Resource&lt;/div&gt;&lt;div align=&quot;left&quot;&gt;+isCovered():boolean&lt;br&gt;&lt;/div&gt;" style="text;html=1;align=left;verticalAlign=middle;resizable=0;points=[];autosize=1;strokeColor=none;fillColor=none;fontColor=default;" parent="JLcb8wGAHAgGzzpa8HeB-5" vertex="1">
          <mxGeometry y="90" width="160" height="40" as="geometry" />
        </mxCell>
        <mxCell id="JLcb8wGAHAgGzzpa8HeB-9" value="&amp;lt;abstract&amp;gt; Resource" style="swimlane;fontStyle=1;align=center;verticalAlign=top;childLayout=stackLayout;horizontal=1;startSize=26;horizontalStack=0;resizeParent=1;resizeParentMax=0;resizeLast=0;collapsible=1;marginBottom=0;whiteSpace=wrap;html=1;fontColor=default;" parent="WIyWlLk6GJQsqaUBKTNV-1" vertex="1">
          <mxGeometry x="1530.5" y="-2930" width="160" height="60" as="geometry" />
        </mxCell>
        <mxCell id="JLcb8wGAHAgGzzpa8HeB-11" value="" style="line;strokeWidth=1;fillColor=none;align=left;verticalAlign=middle;spacingTop=-1;spacingLeft=3;spacingRight=3;rotatable=0;labelPosition=right;points=[];portConstraint=eastwest;strokeColor=inherit;fontColor=default;" parent="JLcb8wGAHAgGzzpa8HeB-9" vertex="1">
          <mxGeometry y="26" width="160" height="8" as="geometry" />
        </mxCell>
        <mxCell id="JLcb8wGAHAgGzzpa8HeB-12" value="+ getResource(): Resource" style="text;strokeColor=none;fillColor=none;align=left;verticalAlign=top;spacingLeft=4;spacingRight=4;overflow=hidden;rotatable=0;points=[[0,0.5],[1,0.5]];portConstraint=eastwest;whiteSpace=wrap;html=1;fontColor=default;" parent="JLcb8wGAHAgGzzpa8HeB-9" vertex="1">
          <mxGeometry y="34" width="160" height="26" as="geometry" />
        </mxCell>
        <mxCell id="JLcb8wGAHAgGzzpa8HeB-14" value="&amp;lt;Enum&amp;gt;Tool" style="swimlane;fontStyle=1;align=center;verticalAlign=top;childLayout=stackLayout;horizontal=1;startSize=26;horizontalStack=0;resizeParent=1;resizeParentMax=0;resizeLast=0;collapsible=1;marginBottom=0;whiteSpace=wrap;html=1;fontColor=default;" parent="WIyWlLk6GJQsqaUBKTNV-1" vertex="1">
          <mxGeometry x="1400.5" y="-2690" width="160" height="52" as="geometry" />
        </mxCell>
        <mxCell id="JLcb8wGAHAgGzzpa8HeB-15" value="feather,scroll,phial" style="text;strokeColor=none;fillColor=none;align=left;verticalAlign=top;spacingLeft=4;spacingRight=4;overflow=hidden;rotatable=0;points=[[0,0.5],[1,0.5]];portConstraint=eastwest;whiteSpace=wrap;html=1;fontColor=default;" parent="JLcb8wGAHAgGzzpa8HeB-14" vertex="1">
          <mxGeometry y="26" width="160" height="26" as="geometry" />
        </mxCell>
        <mxCell id="JLcb8wGAHAgGzzpa8HeB-24" value="GoldCard" style="swimlane;fontStyle=1;align=center;verticalAlign=top;childLayout=stackLayout;horizontal=1;startSize=21;horizontalStack=0;resizeParent=1;resizeParentMax=0;resizeLast=0;collapsible=1;marginBottom=0;whiteSpace=wrap;html=1;fontColor=default;" parent="WIyWlLk6GJQsqaUBKTNV-1" vertex="1">
          <mxGeometry x="570.5" y="-2630" width="250" height="130" as="geometry" />
        </mxCell>
        <mxCell id="E-_rWRL8sggAh93KuL3w-0" value="- Requirements : Map&amp;lt;Reign, Integer&amp;gt;&lt;div&gt;&lt;span style=&quot;white-space: normal;&quot;&gt;- points: int&lt;/span&gt;&lt;br&gt;&lt;/div&gt;" style="text;html=1;align=left;verticalAlign=middle;resizable=0;points=[];autosize=1;strokeColor=none;fillColor=none;fontColor=default;" parent="JLcb8wGAHAgGzzpa8HeB-24" vertex="1">
          <mxGeometry y="21" width="250" height="40" as="geometry" />
        </mxCell>
        <mxCell id="JLcb8wGAHAgGzzpa8HeB-26" value="" style="line;strokeWidth=1;fillColor=none;align=left;verticalAlign=middle;spacingTop=-1;spacingLeft=3;spacingRight=3;rotatable=0;labelPosition=right;points=[];portConstraint=eastwest;strokeColor=inherit;fontColor=default;" parent="JLcb8wGAHAgGzzpa8HeB-24" vertex="1">
          <mxGeometry y="61" width="250" height="11" as="geometry" />
        </mxCell>
        <mxCell id="EF45_xodWaJwRy3mG7dY-5" value="&lt;div align=&quot;left&quot;&gt;+getRequirements() :Map&amp;lt;Reign,Integer&amp;gt;&lt;br&gt;&lt;/div&gt;&lt;div align=&quot;left&quot;&gt;&lt;br&gt;&lt;/div&gt;&lt;div align=&quot;left&quot;&gt;+getPoints(): int&lt;br&gt;&lt;/div&gt;" style="text;html=1;align=left;verticalAlign=middle;whiteSpace=wrap;rounded=0;fontColor=default;" parent="JLcb8wGAHAgGzzpa8HeB-24" vertex="1">
          <mxGeometry y="72" width="250" height="58" as="geometry" />
        </mxCell>
        <mxCell id="JLcb8wGAHAgGzzpa8HeB-32" value="Extends" style="endArrow=block;endSize=16;endFill=0;html=1;rounded=0;exitX=0.5;exitY=0;exitDx=0;exitDy=0;entryX=0.421;entryY=1.022;entryDx=0;entryDy=0;entryPerimeter=0;fontColor=default;" parent="WIyWlLk6GJQsqaUBKTNV-1" target="JLcb8wGAHAgGzzpa8HeB-4" edge="1">
          <mxGeometry x="-0.6364" width="160" relative="1" as="geometry">
            <mxPoint x="656.5" y="-2630" as="sourcePoint" />
            <mxPoint x="660.5" y="-2830" as="targetPoint" />
            <Array as="points">
              <mxPoint x="656.5" y="-2730" />
              <mxPoint x="656.5" y="-2750" />
            </Array>
            <mxPoint as="offset" />
          </mxGeometry>
        </mxCell>
        <mxCell id="pGGR8wDG81xiq5hkl2QB-0" value="GoldCardTool" style="swimlane;fontStyle=1;align=center;verticalAlign=top;childLayout=stackLayout;horizontal=1;startSize=26;horizontalStack=0;resizeParent=1;resizeParentMax=0;resizeLast=0;collapsible=1;marginBottom=0;whiteSpace=wrap;html=1;fontColor=default;" parent="WIyWlLk6GJQsqaUBKTNV-1" vertex="1">
          <mxGeometry x="500.5" y="-2311" width="160" height="60" as="geometry">
            <mxRectangle x="500" y="809" width="110" height="30" as="alternateBounds" />
          </mxGeometry>
        </mxCell>
        <mxCell id="pGGR8wDG81xiq5hkl2QB-1" value="-tool: Tool" style="text;strokeColor=none;fillColor=none;align=left;verticalAlign=top;spacingLeft=4;spacingRight=4;overflow=hidden;rotatable=0;points=[[0,0.5],[1,0.5]];portConstraint=eastwest;whiteSpace=wrap;html=1;fontColor=default;" parent="pGGR8wDG81xiq5hkl2QB-0" vertex="1">
          <mxGeometry y="26" width="160" height="26" as="geometry" />
        </mxCell>
        <mxCell id="pGGR8wDG81xiq5hkl2QB-2" value="" style="line;strokeWidth=1;fillColor=none;align=left;verticalAlign=middle;spacingTop=-1;spacingLeft=3;spacingRight=3;rotatable=0;labelPosition=right;points=[];portConstraint=eastwest;strokeColor=inherit;fontColor=default;" parent="pGGR8wDG81xiq5hkl2QB-0" vertex="1">
          <mxGeometry y="52" width="160" height="8" as="geometry" />
        </mxCell>
        <mxCell id="pGGR8wDG81xiq5hkl2QB-4" value="GoldCardAngles" style="swimlane;fontStyle=1;align=center;verticalAlign=top;childLayout=stackLayout;horizontal=1;startSize=26;horizontalStack=0;resizeParent=1;resizeParentMax=0;resizeLast=0;collapsible=1;marginBottom=0;whiteSpace=wrap;html=1;fontColor=default;" parent="WIyWlLk6GJQsqaUBKTNV-1" vertex="1">
          <mxGeometry x="720.5" y="-2311" width="160" height="34" as="geometry">
            <mxRectangle x="720" y="809" width="130" height="30" as="alternateBounds" />
          </mxGeometry>
        </mxCell>
        <mxCell id="pGGR8wDG81xiq5hkl2QB-6" value="" style="line;strokeWidth=1;fillColor=none;align=left;verticalAlign=middle;spacingTop=-1;spacingLeft=3;spacingRight=3;rotatable=0;labelPosition=right;points=[];portConstraint=eastwest;strokeColor=inherit;fontColor=default;" parent="pGGR8wDG81xiq5hkl2QB-4" vertex="1">
          <mxGeometry y="26" width="160" height="8" as="geometry" />
        </mxCell>
        <mxCell id="U6kzLl_--cRYhZTv7tza-3" value="" style="endArrow=none;html=1;rounded=0;entryX=0.5;entryY=0;entryDx=0;entryDy=0;fontColor=default;" parent="WIyWlLk6GJQsqaUBKTNV-1" target="DvexnknoC_lyuImm-Q-N-4" edge="1">
          <mxGeometry width="50" height="50" relative="1" as="geometry">
            <mxPoint x="650.5" y="-2730" as="sourcePoint" />
            <mxPoint x="1030.5" y="-2664" as="targetPoint" />
            <Array as="points">
              <mxPoint x="960.5" y="-2730" />
            </Array>
          </mxGeometry>
        </mxCell>
        <mxCell id="U6kzLl_--cRYhZTv7tza-4" value="Extends" style="edgeLabel;html=1;align=center;verticalAlign=middle;resizable=0;points=[];fontColor=default;" parent="U6kzLl_--cRYhZTv7tza-3" vertex="1" connectable="0">
          <mxGeometry x="0.3199" y="-2" relative="1" as="geometry">
            <mxPoint x="39" y="48" as="offset" />
          </mxGeometry>
        </mxCell>
        <mxCell id="U6kzLl_--cRYhZTv7tza-8" value="Extends" style="endArrow=block;endSize=16;endFill=0;html=1;rounded=0;entryX=0.48;entryY=1;entryDx=0;entryDy=0;exitX=0.433;exitY=-0.035;exitDx=0;exitDy=0;exitPerimeter=0;entryPerimeter=0;fontColor=default;" parent="WIyWlLk6GJQsqaUBKTNV-1" source="pGGR8wDG81xiq5hkl2QB-0" target="EF45_xodWaJwRy3mG7dY-5" edge="1">
          <mxGeometry x="-0.2803" width="160" relative="1" as="geometry">
            <mxPoint x="490.5" y="-2321" as="sourcePoint" />
            <mxPoint x="655.5" y="-2550" as="targetPoint" />
            <Array as="points">
              <mxPoint x="570.5" y="-2381" />
              <mxPoint x="690.5" y="-2381" />
            </Array>
            <mxPoint as="offset" />
          </mxGeometry>
        </mxCell>
        <mxCell id="U6kzLl_--cRYhZTv7tza-10" value="" style="endArrow=none;html=1;rounded=0;entryX=0.5;entryY=0;entryDx=0;entryDy=0;fontColor=default;" parent="WIyWlLk6GJQsqaUBKTNV-1" target="pGGR8wDG81xiq5hkl2QB-4" edge="1">
          <mxGeometry width="50" height="50" relative="1" as="geometry">
            <mxPoint x="690.5" y="-2381" as="sourcePoint" />
            <mxPoint x="870.5" y="-2381" as="targetPoint" />
            <Array as="points">
              <mxPoint x="800.5" y="-2381" />
            </Array>
          </mxGeometry>
        </mxCell>
        <mxCell id="U6kzLl_--cRYhZTv7tza-11" value="&lt;div&gt;Extends&lt;/div&gt;" style="edgeLabel;html=1;align=center;verticalAlign=middle;resizable=0;points=[];fontColor=default;" parent="U6kzLl_--cRYhZTv7tza-10" vertex="1" connectable="0">
          <mxGeometry x="-0.3168" y="-2" relative="1" as="geometry">
            <mxPoint x="15" y="-2" as="offset" />
          </mxGeometry>
        </mxCell>
        <mxCell id="EF45_xodWaJwRy3mG7dY-0" value="&amp;lt;Enum&amp;gt;Reign" style="swimlane;fontStyle=1;align=center;verticalAlign=top;childLayout=stackLayout;horizontal=1;startSize=26;horizontalStack=0;resizeParent=1;resizeParentMax=0;resizeLast=0;collapsible=1;marginBottom=0;whiteSpace=wrap;html=1;fontColor=default;" parent="WIyWlLk6GJQsqaUBKTNV-1" vertex="1">
          <mxGeometry x="1690.5" y="-2690" width="190" height="52" as="geometry" />
        </mxCell>
        <mxCell id="EF45_xodWaJwRy3mG7dY-1" value="animal,mushroom,plant,bug" style="text;strokeColor=none;fillColor=none;align=left;verticalAlign=top;spacingLeft=4;spacingRight=4;overflow=hidden;rotatable=0;points=[[0,0.5],[1,0.5]];portConstraint=eastwest;whiteSpace=wrap;html=1;fontColor=default;" parent="EF45_xodWaJwRy3mG7dY-0" vertex="1">
          <mxGeometry y="26" width="190" height="26" as="geometry" />
        </mxCell>
        <mxCell id="DvexnknoC_lyuImm-Q-N-4" value="ResourceCard" style="swimlane;fontStyle=1;align=center;verticalAlign=top;childLayout=stackLayout;horizontal=1;startSize=26;horizontalStack=0;resizeParent=1;resizeParentMax=0;resizeLast=0;collapsible=1;marginBottom=0;whiteSpace=wrap;html=1;fontColor=default;" parent="WIyWlLk6GJQsqaUBKTNV-1" vertex="1">
          <mxGeometry x="880.5" y="-2630" width="160" height="128" as="geometry" />
        </mxCell>
        <mxCell id="DvexnknoC_lyuImm-Q-N-5" value="- points: int" style="text;strokeColor=none;fillColor=none;align=left;verticalAlign=top;spacingLeft=4;spacingRight=4;overflow=hidden;rotatable=0;points=[[0,0.5],[1,0.5]];portConstraint=eastwest;whiteSpace=wrap;html=1;fontColor=default;" parent="DvexnknoC_lyuImm-Q-N-4" vertex="1">
          <mxGeometry y="26" width="160" height="44" as="geometry" />
        </mxCell>
        <mxCell id="DvexnknoC_lyuImm-Q-N-6" value="" style="line;strokeWidth=1;fillColor=none;align=left;verticalAlign=middle;spacingTop=-1;spacingLeft=3;spacingRight=3;rotatable=0;labelPosition=right;points=[];portConstraint=eastwest;strokeColor=inherit;fontColor=default;" parent="DvexnknoC_lyuImm-Q-N-4" vertex="1">
          <mxGeometry y="70" width="160" height="18" as="geometry" />
        </mxCell>
        <mxCell id="DvexnknoC_lyuImm-Q-N-8" value="+ getPoints():int&lt;br&gt;&lt;div&gt;&lt;span style=&quot;white-space: normal;&quot;&gt;&lt;br&gt;&lt;/span&gt;&lt;/div&gt;" style="text;html=1;align=left;verticalAlign=middle;resizable=0;points=[];autosize=1;strokeColor=none;fillColor=none;fontColor=default;" parent="DvexnknoC_lyuImm-Q-N-4" vertex="1">
          <mxGeometry y="88" width="160" height="40" as="geometry" />
        </mxCell>
        <mxCell id="DvexnknoC_lyuImm-Q-N-9" value="StarterCard" style="swimlane;fontStyle=1;align=center;verticalAlign=top;childLayout=stackLayout;horizontal=1;startSize=26;horizontalStack=0;resizeParent=1;resizeParentMax=0;resizeLast=0;collapsible=1;marginBottom=0;whiteSpace=wrap;html=1;fontColor=default;" parent="WIyWlLk6GJQsqaUBKTNV-1" vertex="1">
          <mxGeometry x="300.5" y="-2630" width="190" height="70" as="geometry" />
        </mxCell>
        <mxCell id="DvexnknoC_lyuImm-Q-N-10" value="+ starterResources: List&amp;lt;reign&amp;gt;" style="text;strokeColor=none;fillColor=none;align=left;verticalAlign=top;spacingLeft=4;spacingRight=4;overflow=hidden;rotatable=0;points=[[0,0.5],[1,0.5]];portConstraint=eastwest;whiteSpace=wrap;html=1;fontColor=default;" parent="DvexnknoC_lyuImm-Q-N-9" vertex="1">
          <mxGeometry y="26" width="190" height="44" as="geometry" />
        </mxCell>
        <mxCell id="DvexnknoC_lyuImm-Q-N-13" value="" style="endArrow=none;html=1;edgeStyle=orthogonalEdgeStyle;rounded=0;exitX=0.562;exitY=-0.005;exitDx=0;exitDy=0;exitPerimeter=0;fontColor=default;" parent="WIyWlLk6GJQsqaUBKTNV-1" source="DvexnknoC_lyuImm-Q-N-9" edge="1">
          <mxGeometry relative="1" as="geometry">
            <mxPoint x="370.5" y="-2730" as="sourcePoint" />
            <mxPoint x="660.5" y="-2730" as="targetPoint" />
            <Array as="points">
              <mxPoint x="400.5" y="-2630" />
              <mxPoint x="400.5" y="-2730" />
            </Array>
          </mxGeometry>
        </mxCell>
        <mxCell id="DvexnknoC_lyuImm-Q-N-14" value="Extends" style="edgeLabel;resizable=0;html=1;align=left;verticalAlign=bottom;fontColor=default;" parent="DvexnknoC_lyuImm-Q-N-13" connectable="0" vertex="1">
          <mxGeometry x="-1" relative="1" as="geometry">
            <mxPoint x="-20" y="-40" as="offset" />
          </mxGeometry>
        </mxCell>
        <mxCell id="DvexnknoC_lyuImm-Q-N-16" value="&amp;lt;Abstract&amp;gt; Goals" style="swimlane;fontStyle=1;align=center;verticalAlign=top;childLayout=stackLayout;horizontal=1;startSize=26;horizontalStack=0;resizeParent=1;resizeParentMax=0;resizeLast=0;collapsible=1;marginBottom=0;whiteSpace=wrap;html=1;fontColor=default;" parent="WIyWlLk6GJQsqaUBKTNV-1" vertex="1">
          <mxGeometry x="1400.5" y="-2471" width="160" height="86" as="geometry" />
        </mxCell>
        <mxCell id="DvexnknoC_lyuImm-Q-N-17" value="-points : int" style="text;strokeColor=none;fillColor=none;align=left;verticalAlign=top;spacingLeft=4;spacingRight=4;overflow=hidden;rotatable=0;points=[[0,0.5],[1,0.5]];portConstraint=eastwest;whiteSpace=wrap;html=1;fontColor=default;" parent="DvexnknoC_lyuImm-Q-N-16" vertex="1">
          <mxGeometry y="26" width="160" height="26" as="geometry" />
        </mxCell>
        <mxCell id="DvexnknoC_lyuImm-Q-N-18" value="" style="line;strokeWidth=1;fillColor=none;align=left;verticalAlign=middle;spacingTop=-1;spacingLeft=3;spacingRight=3;rotatable=0;labelPosition=right;points=[];portConstraint=eastwest;strokeColor=inherit;fontColor=default;" parent="DvexnknoC_lyuImm-Q-N-16" vertex="1">
          <mxGeometry y="52" width="160" height="8" as="geometry" />
        </mxCell>
        <mxCell id="DvexnknoC_lyuImm-Q-N-19" value="+ getPoints() : int" style="text;strokeColor=none;fillColor=none;align=left;verticalAlign=top;spacingLeft=4;spacingRight=4;overflow=hidden;rotatable=0;points=[[0,0.5],[1,0.5]];portConstraint=eastwest;whiteSpace=wrap;html=1;fontColor=default;" parent="DvexnknoC_lyuImm-Q-N-16" vertex="1">
          <mxGeometry y="60" width="160" height="26" as="geometry" />
        </mxCell>
        <mxCell id="DYIzedRVmLQqtgvzEhJK-59" value="package" style="shape=folder;fontStyle=1;spacingTop=10;tabWidth=40;tabHeight=14;tabPosition=left;html=1;whiteSpace=wrap;" vertex="1" parent="WIyWlLk6GJQsqaUBKTNV-1">
          <mxGeometry x="90" y="-2020" width="2210" height="910" as="geometry" />
        </mxCell>
        <mxCell id="DvexnknoC_lyuImm-Q-N-20" value="Extends" style="endArrow=block;endSize=16;endFill=0;html=1;rounded=0;entryX=0.471;entryY=1.001;entryDx=0;entryDy=0;exitX=0.5;exitY=0;exitDx=0;exitDy=0;entryPerimeter=0;fontColor=default;" parent="WIyWlLk6GJQsqaUBKTNV-1" target="DvexnknoC_lyuImm-Q-N-19" edge="1">
          <mxGeometry x="-0.6364" width="160" relative="1" as="geometry">
            <mxPoint x="1360.5" y="-2188" as="sourcePoint" />
            <mxPoint x="1476" y="-2383" as="targetPoint" />
            <Array as="points">
              <mxPoint x="1360.5" y="-2293" />
              <mxPoint x="1420.5" y="-2293" />
              <mxPoint x="1476" y="-2293" />
            </Array>
            <mxPoint as="offset" />
          </mxGeometry>
        </mxCell>
        <mxCell id="DvexnknoC_lyuImm-Q-N-23" value="" style="endArrow=none;html=1;edgeStyle=orthogonalEdgeStyle;rounded=0;exitX=0.438;exitY=0;exitDx=0;exitDy=0;exitPerimeter=0;fontColor=default;" parent="WIyWlLk6GJQsqaUBKTNV-1" edge="1">
          <mxGeometry relative="1" as="geometry">
            <mxPoint x="1110.5" y="-2193" as="sourcePoint" />
            <mxPoint x="1360" y="-2293" as="targetPoint" />
            <Array as="points">
              <mxPoint x="1110.5" y="-2293" />
              <mxPoint x="1300.5" y="-2293" />
            </Array>
          </mxGeometry>
        </mxCell>
        <mxCell id="DvexnknoC_lyuImm-Q-N-24" value="Extends" style="edgeLabel;resizable=0;html=1;align=left;verticalAlign=bottom;fontColor=default;" parent="DvexnknoC_lyuImm-Q-N-23" connectable="0" vertex="1">
          <mxGeometry x="-1" relative="1" as="geometry">
            <mxPoint x="-20" y="-40" as="offset" />
          </mxGeometry>
        </mxCell>
        <mxCell id="AA-iRr0cbiNNM53GynT9-10" value="" style="endArrow=none;html=1;rounded=0;entryX=0.475;entryY=0.167;entryDx=0;entryDy=0;entryPerimeter=0;fontColor=default;" parent="WIyWlLk6GJQsqaUBKTNV-1" target="AA-iRr0cbiNNM53GynT9-24" edge="1">
          <mxGeometry width="50" height="50" relative="1" as="geometry">
            <mxPoint x="1669.5" y="-2293" as="sourcePoint" />
            <mxPoint x="1896.5" y="-2238" as="targetPoint" />
            <Array as="points">
              <mxPoint x="1896.5" y="-2294" />
            </Array>
          </mxGeometry>
        </mxCell>
        <mxCell id="AA-iRr0cbiNNM53GynT9-11" value="Extends" style="edgeLabel;html=1;align=center;verticalAlign=middle;resizable=0;points=[];fontColor=default;" parent="AA-iRr0cbiNNM53GynT9-10" vertex="1" connectable="0">
          <mxGeometry x="0.3199" y="-2" relative="1" as="geometry">
            <mxPoint x="13" y="52" as="offset" />
          </mxGeometry>
        </mxCell>
        <mxCell id="AA-iRr0cbiNNM53GynT9-12" value="StairGoal" style="swimlane;fontStyle=1;align=center;verticalAlign=top;childLayout=stackLayout;horizontal=1;startSize=26;horizontalStack=0;resizeParent=1;resizeParentMax=0;resizeLast=0;collapsible=1;marginBottom=0;whiteSpace=wrap;html=1;fontColor=default;" parent="WIyWlLk6GJQsqaUBKTNV-1" vertex="1">
          <mxGeometry x="1030.5" y="-2200" width="160" height="60" as="geometry" />
        </mxCell>
        <mxCell id="AA-iRr0cbiNNM53GynT9-13" value="-reign :Reign" style="text;strokeColor=none;fillColor=none;align=left;verticalAlign=top;spacingLeft=4;spacingRight=4;overflow=hidden;rotatable=0;points=[[0,0.5],[1,0.5]];portConstraint=eastwest;whiteSpace=wrap;html=1;fontColor=default;" parent="AA-iRr0cbiNNM53GynT9-12" vertex="1">
          <mxGeometry y="26" width="160" height="26" as="geometry" />
        </mxCell>
        <mxCell id="AA-iRr0cbiNNM53GynT9-14" value="" style="line;strokeWidth=1;fillColor=none;align=left;verticalAlign=middle;spacingTop=-1;spacingLeft=3;spacingRight=3;rotatable=0;labelPosition=right;points=[];portConstraint=eastwest;strokeColor=inherit;fontColor=default;" parent="AA-iRr0cbiNNM53GynT9-12" vertex="1">
          <mxGeometry y="52" width="160" height="8" as="geometry" />
        </mxCell>
        <mxCell id="AA-iRr0cbiNNM53GynT9-16" value="L_Goal" style="swimlane;fontStyle=1;align=center;verticalAlign=top;childLayout=stackLayout;horizontal=1;startSize=26;horizontalStack=0;resizeParent=1;resizeParentMax=0;resizeLast=0;collapsible=1;marginBottom=0;whiteSpace=wrap;html=1;fontColor=default;" parent="WIyWlLk6GJQsqaUBKTNV-1" vertex="1">
          <mxGeometry x="1280" y="-2200" width="160" height="60" as="geometry" />
        </mxCell>
        <mxCell id="AA-iRr0cbiNNM53GynT9-17" value="-reign: Reign" style="text;strokeColor=none;fillColor=none;align=left;verticalAlign=top;spacingLeft=4;spacingRight=4;overflow=hidden;rotatable=0;points=[[0,0.5],[1,0.5]];portConstraint=eastwest;whiteSpace=wrap;html=1;fontColor=default;" parent="AA-iRr0cbiNNM53GynT9-16" vertex="1">
          <mxGeometry y="26" width="160" height="26" as="geometry" />
        </mxCell>
        <mxCell id="AA-iRr0cbiNNM53GynT9-18" value="" style="line;strokeWidth=1;fillColor=none;align=left;verticalAlign=middle;spacingTop=-1;spacingLeft=3;spacingRight=3;rotatable=0;labelPosition=right;points=[];portConstraint=eastwest;strokeColor=inherit;fontColor=default;" parent="AA-iRr0cbiNNM53GynT9-16" vertex="1">
          <mxGeometry y="52" width="160" height="8" as="geometry" />
        </mxCell>
        <mxCell id="AA-iRr0cbiNNM53GynT9-20" value="IdenticalGoal" style="swimlane;fontStyle=1;align=center;verticalAlign=top;childLayout=stackLayout;horizontal=1;startSize=26;horizontalStack=0;resizeParent=1;resizeParentMax=0;resizeLast=0;collapsible=1;marginBottom=0;whiteSpace=wrap;html=1;fontColor=default;" parent="WIyWlLk6GJQsqaUBKTNV-1" vertex="1">
          <mxGeometry x="1596.5" y="-2200" width="160" height="70" as="geometry" />
        </mxCell>
        <mxCell id="AA-iRr0cbiNNM53GynT9-21" value="- res : Resource&lt;div&gt;- num: int&lt;/div&gt;" style="text;strokeColor=none;fillColor=none;align=left;verticalAlign=top;spacingLeft=4;spacingRight=4;overflow=hidden;rotatable=0;points=[[0,0.5],[1,0.5]];portConstraint=eastwest;whiteSpace=wrap;html=1;fontColor=default;" parent="AA-iRr0cbiNNM53GynT9-20" vertex="1">
          <mxGeometry y="26" width="160" height="44" as="geometry" />
        </mxCell>
        <mxCell id="AA-iRr0cbiNNM53GynT9-24" value="DistinctGoal" style="swimlane;fontStyle=1;align=center;verticalAlign=top;childLayout=stackLayout;horizontal=1;startSize=26;horizontalStack=0;resizeParent=1;resizeParentMax=0;resizeLast=0;collapsible=1;marginBottom=0;whiteSpace=wrap;html=1;fontColor=default;" parent="WIyWlLk6GJQsqaUBKTNV-1" vertex="1">
          <mxGeometry x="1820.5" y="-2200" width="160" height="60" as="geometry" />
        </mxCell>
        <mxCell id="AA-iRr0cbiNNM53GynT9-25" value="&amp;nbsp;" style="text;strokeColor=none;fillColor=none;align=left;verticalAlign=top;spacingLeft=4;spacingRight=4;overflow=hidden;rotatable=0;points=[[0,0.5],[1,0.5]];portConstraint=eastwest;whiteSpace=wrap;html=1;fontColor=default;" parent="AA-iRr0cbiNNM53GynT9-24" vertex="1">
          <mxGeometry y="26" width="160" height="26" as="geometry" />
        </mxCell>
        <mxCell id="AA-iRr0cbiNNM53GynT9-26" value="" style="line;strokeWidth=1;fillColor=none;align=left;verticalAlign=middle;spacingTop=-1;spacingLeft=3;spacingRight=3;rotatable=0;labelPosition=right;points=[];portConstraint=eastwest;strokeColor=inherit;fontColor=default;" parent="AA-iRr0cbiNNM53GynT9-24" vertex="1">
          <mxGeometry y="52" width="160" height="8" as="geometry" />
        </mxCell>
        <mxCell id="AA-iRr0cbiNNM53GynT9-28" value="Player" style="swimlane;fontStyle=1;align=center;verticalAlign=top;childLayout=stackLayout;horizontal=1;startSize=26;horizontalStack=0;resizeParent=1;resizeParentMax=0;resizeLast=0;collapsible=1;marginBottom=0;whiteSpace=wrap;html=1;fontColor=default;" parent="WIyWlLk6GJQsqaUBKTNV-1" vertex="1">
          <mxGeometry x="710.5" y="-1940" width="320" height="150" as="geometry" />
        </mxCell>
        <mxCell id="AA-iRr0cbiNNM53GynT9-29" value="-name : String&lt;div&gt;- check : String&lt;/div&gt;&lt;div&gt;- points: int&lt;/div&gt;&lt;div&gt;&lt;br&gt;&lt;/div&gt;" style="text;strokeColor=none;fillColor=none;align=left;verticalAlign=top;spacingLeft=4;spacingRight=4;overflow=hidden;rotatable=0;points=[[0,0.5],[1,0.5]];portConstraint=eastwest;whiteSpace=wrap;html=1;fontColor=default;" parent="AA-iRr0cbiNNM53GynT9-28" vertex="1">
          <mxGeometry y="26" width="320" height="124" as="geometry" />
        </mxCell>
        <mxCell id="u47IoDtROjoDoX3tb5BJ-0" value="Coordinates" style="swimlane;fontStyle=1;align=center;verticalAlign=top;childLayout=stackLayout;horizontal=1;startSize=26;horizontalStack=0;resizeParent=1;resizeParentMax=0;resizeLast=0;collapsible=1;marginBottom=0;whiteSpace=wrap;html=1;fontColor=default;" parent="WIyWlLk6GJQsqaUBKTNV-1" vertex="1">
          <mxGeometry x="1180.5" y="-1530" width="150" height="70" as="geometry" />
        </mxCell>
        <mxCell id="u47IoDtROjoDoX3tb5BJ-1" value="+ x: int&lt;div&gt;+ y: int&lt;br&gt;&lt;/div&gt;" style="text;strokeColor=none;fillColor=none;align=left;verticalAlign=top;spacingLeft=4;spacingRight=4;overflow=hidden;rotatable=0;points=[[0,0.5],[1,0.5]];portConstraint=eastwest;whiteSpace=wrap;html=1;fontColor=default;" parent="u47IoDtROjoDoX3tb5BJ-0" vertex="1">
          <mxGeometry y="26" width="150" height="44" as="geometry" />
        </mxCell>
        <mxCell id="cQWzsJ5Ow6czlzq-uUI3-0" value="GameManager" style="swimlane;fontStyle=1;align=center;verticalAlign=top;childLayout=stackLayout;horizontal=1;startSize=26;horizontalStack=0;resizeParent=1;resizeParentMax=0;resizeLast=0;collapsible=1;marginBottom=0;whiteSpace=wrap;html=1;fontColor=default;" parent="WIyWlLk6GJQsqaUBKTNV-1" vertex="1">
          <mxGeometry x="1820.5" y="-1910" width="250" height="126" as="geometry" />
        </mxCell>
        <mxCell id="DYIzedRVmLQqtgvzEhJK-57" value="1" style="endArrow=close;html=1;endSize=12;startArrow=diamondThin;startSize=14;startFill=1;edgeStyle=orthogonalEdgeStyle;align=left;verticalAlign=bottom;rounded=0;exitX=-0.007;exitY=0.691;exitDx=0;exitDy=0;exitPerimeter=0;fontColor=default;" edge="1" parent="cQWzsJ5Ow6czlzq-uUI3-0">
          <mxGeometry x="-0.7222" y="-3" relative="1" as="geometry">
            <mxPoint x="-1.7499999999995453" y="90.95400000000018" as="sourcePoint" />
            <mxPoint x="-190.5" y="91" as="targetPoint" />
            <mxPoint as="offset" />
          </mxGeometry>
        </mxCell>
        <mxCell id="cQWzsJ5Ow6czlzq-uUI3-2" value="" style="line;strokeWidth=1;fillColor=none;align=left;verticalAlign=middle;spacingTop=-1;spacingLeft=3;spacingRight=3;rotatable=0;labelPosition=right;points=[];portConstraint=eastwest;strokeColor=inherit;fontColor=default;" parent="cQWzsJ5Ow6czlzq-uUI3-0" vertex="1">
          <mxGeometry y="26" width="250" height="8" as="geometry" />
        </mxCell>
        <mxCell id="cQWzsJ5Ow6czlzq-uUI3-3" value="&lt;div&gt;+ bootGame(int):Game&lt;/div&gt;&lt;div&gt;+ saveGame(Game):void&lt;/div&gt;&lt;div&gt;+ loadGame(String):void&lt;br&gt;&lt;/div&gt;&lt;div&gt;+ endGame(Game):void&lt;br&gt;&lt;/div&gt;&lt;div&gt;&lt;br&gt;&lt;/div&gt;&lt;div&gt;&lt;br&gt;&lt;/div&gt;" style="text;strokeColor=none;fillColor=none;align=left;verticalAlign=top;spacingLeft=4;spacingRight=4;overflow=hidden;rotatable=0;points=[[0,0.5],[1,0.5]];portConstraint=eastwest;whiteSpace=wrap;html=1;fontColor=default;" parent="cQWzsJ5Ow6czlzq-uUI3-0" vertex="1">
          <mxGeometry y="34" width="250" height="92" as="geometry" />
        </mxCell>
        <mxCell id="cQWzsJ5Ow6czlzq-uUI3-4" value="Game" style="swimlane;fontStyle=1;align=center;verticalAlign=top;childLayout=stackLayout;horizontal=1;startSize=26;horizontalStack=0;resizeParent=1;resizeParentMax=0;resizeLast=0;collapsible=1;marginBottom=0;whiteSpace=wrap;html=1;fontColor=default;" parent="WIyWlLk6GJQsqaUBKTNV-1" vertex="1">
          <mxGeometry x="1360.5" y="-1900" width="270" height="340" as="geometry" />
        </mxCell>
        <mxCell id="cQWzsJ5Ow6czlzq-uUI3-5" value="&lt;div&gt;- numOfPlayers:int&lt;/div&gt;&lt;div&gt;&lt;br&gt;&lt;/div&gt;" style="text;strokeColor=none;fillColor=none;align=left;verticalAlign=top;spacingLeft=4;spacingRight=4;overflow=hidden;rotatable=0;points=[[0,0.5],[1,0.5]];portConstraint=eastwest;whiteSpace=wrap;html=1;fontColor=default;" parent="cQWzsJ5Ow6czlzq-uUI3-4" vertex="1">
          <mxGeometry y="26" width="270" height="124" as="geometry" />
        </mxCell>
        <mxCell id="cQWzsJ5Ow6czlzq-uUI3-6" value="" style="line;strokeWidth=1;fillColor=none;align=left;verticalAlign=middle;spacingTop=-1;spacingLeft=3;spacingRight=3;rotatable=0;labelPosition=right;points=[];portConstraint=eastwest;strokeColor=inherit;fontColor=default;" parent="cQWzsJ5Ow6czlzq-uUI3-4" vertex="1">
          <mxGeometry y="150" width="270" height="38" as="geometry" />
        </mxCell>
        <mxCell id="cQWzsJ5Ow6czlzq-uUI3-7" value="&lt;div&gt;+ startGame():void&lt;/div&gt;&lt;div&gt;+ nextPlayer(): void&lt;/div&gt;&lt;div&gt;&lt;div&gt;+ drawVisibleCard(int): void&lt;/div&gt;&lt;div&gt;+ drawFromDeck(int): void&lt;/div&gt;&lt;div&gt;+ playCardFront(Card,Vector): void&lt;/div&gt;&lt;div&gt;+ playCardBack(Card,Vector): void&lt;br&gt;&lt;/div&gt;&lt;/div&gt;&lt;div&gt;+ getWinner():Player&lt;/div&gt;" style="text;strokeColor=none;fillColor=none;align=left;verticalAlign=top;spacingLeft=4;spacingRight=4;overflow=hidden;rotatable=0;points=[[0,0.5],[1,0.5]];portConstraint=eastwest;whiteSpace=wrap;html=1;fontColor=default;" parent="cQWzsJ5Ow6czlzq-uUI3-4" vertex="1">
          <mxGeometry y="188" width="270" height="152" as="geometry" />
        </mxCell>
        <mxCell id="cQWzsJ5Ow6czlzq-uUI3-13" value="1..4" style="endArrow=close;html=1;endSize=12;startArrow=diamondThin;startSize=14;startFill=1;edgeStyle=orthogonalEdgeStyle;align=left;verticalAlign=bottom;rounded=0;exitX=0.006;exitY=0.173;exitDx=0;exitDy=0;exitPerimeter=0;fontColor=default;" parent="WIyWlLk6GJQsqaUBKTNV-1" source="cQWzsJ5Ow6czlzq-uUI3-5" target="AA-iRr0cbiNNM53GynT9-29" edge="1">
          <mxGeometry x="-0.7222" y="-3" relative="1" as="geometry">
            <mxPoint x="1360.5" y="-1850" as="sourcePoint" />
            <mxPoint x="1320.5" y="-1550" as="targetPoint" />
            <mxPoint as="offset" />
          </mxGeometry>
        </mxCell>
        <mxCell id="cQWzsJ5Ow6czlzq-uUI3-15" value="0..n" style="endArrow=close;html=1;endSize=12;startArrow=diamondThin;startSize=14;startFill=1;edgeStyle=orthogonalEdgeStyle;align=left;verticalAlign=bottom;rounded=0;exitX=0.012;exitY=0.41;exitDx=0;exitDy=0;exitPerimeter=0;entryX=1.006;entryY=0.234;entryDx=0;entryDy=0;entryPerimeter=0;fontColor=default;" parent="WIyWlLk6GJQsqaUBKTNV-1" target="cQWzsJ5Ow6czlzq-uUI3-5" edge="1">
          <mxGeometry x="-0.3586" y="5" relative="1" as="geometry">
            <mxPoint x="1823.5" y="-1845.4599999999996" as="sourcePoint" />
            <mxPoint x="1640.5" y="-1845" as="targetPoint" />
            <mxPoint x="-1" as="offset" />
          </mxGeometry>
        </mxCell>
        <mxCell id="cQWzsJ5Ow6czlzq-uUI3-16" value="&lt;font style=&quot;font-size: 80px;&quot;&gt;i getter e i setter sono impliciti&lt;/font&gt;" style="text;html=1;align=center;verticalAlign=middle;resizable=0;points=[];autosize=1;strokeColor=none;fillColor=none;fontColor=default;" parent="WIyWlLk6GJQsqaUBKTNV-1" vertex="1">
          <mxGeometry x="90" y="-890" width="1080" height="110" as="geometry" />
        </mxCell>
        <mxCell id="CKs_aEuCcjq5mciT35Ke-2" value="1" style="endArrow=close;html=1;endSize=12;startArrow=diamondThin;startSize=14;startFill=0;edgeStyle=orthogonalEdgeStyle;align=left;verticalAlign=bottom;rounded=0;entryX=0.5;entryY=0;entryDx=0;entryDy=0;fontColor=default;" parent="WIyWlLk6GJQsqaUBKTNV-1" target="u47IoDtROjoDoX3tb5BJ-0" edge="1">
          <mxGeometry x="-0.8233" y="-5" relative="1" as="geometry">
            <mxPoint x="1360.5" y="-1764.5" as="sourcePoint" />
            <mxPoint x="1110.5" y="-1590" as="targetPoint" />
            <Array as="points">
              <mxPoint x="1255.5" y="-1764" />
            </Array>
            <mxPoint as="offset" />
          </mxGeometry>
        </mxCell>
        <mxCell id="c2UusswDaAf2Ig5xb_kL-5" value="2...4" style="endArrow=close;html=1;endSize=12;startArrow=diamondThin;startSize=14;startFill=1;edgeStyle=orthogonalEdgeStyle;align=left;verticalAlign=bottom;rounded=0;fontColor=default;" parent="WIyWlLk6GJQsqaUBKTNV-1" edge="1">
          <mxGeometry x="-0.5462" y="10" relative="1" as="geometry">
            <mxPoint x="750.5" y="-2970" as="sourcePoint" />
            <mxPoint x="880.5" y="-2970" as="targetPoint" />
            <mxPoint as="offset" />
          </mxGeometry>
        </mxCell>
        <mxCell id="c2UusswDaAf2Ig5xb_kL-10" value="&lt;div&gt;&lt;font size=&quot;1&quot;&gt;&lt;b style=&quot;font-size: 18px;&quot;&gt;GameCard&lt;/b&gt;&lt;/font&gt;&lt;/div&gt;" style="text;html=1;align=center;verticalAlign=middle;whiteSpace=wrap;rounded=0;fontColor=default;" parent="WIyWlLk6GJQsqaUBKTNV-1" vertex="1">
          <mxGeometry x="80.5" y="-3130" width="60" height="70" as="geometry" />
        </mxCell>
        <mxCell id="c2UusswDaAf2Ig5xb_kL-23" value="&lt;font style=&quot;font-size: 18px;&quot;&gt;CodexNaturalis&lt;/font&gt;" style="text;align=center;fontStyle=1;verticalAlign=middle;spacingLeft=3;spacingRight=3;strokeColor=none;rotatable=0;points=[[0,0.5],[1,0.5]];portConstraint=eastwest;html=1;fontColor=default;" parent="WIyWlLk6GJQsqaUBKTNV-1" vertex="1">
          <mxGeometry x="60.5" y="-3240" width="80" height="26" as="geometry" />
        </mxCell>
        <mxCell id="n3vaW72_bKXSgv0cMjPY-1" value="40" style="endArrow=close;html=1;endSize=12;startArrow=diamondThin;startSize=14;startFill=0;edgeStyle=orthogonalEdgeStyle;align=left;verticalAlign=bottom;rounded=0;entryX=1;entryY=0.5;entryDx=0;entryDy=0;fontColor=default;fillColor=#6a00ff;strokeColor=#3700CC;" parent="WIyWlLk6GJQsqaUBKTNV-1" edge="1">
          <mxGeometry x="-0.981" y="-17" relative="1" as="geometry">
            <mxPoint x="1563" y="-1900" as="sourcePoint" />
            <mxPoint x="1040.5" y="-2550" as="targetPoint" />
            <Array as="points">
              <mxPoint x="1563" y="-1970" />
              <mxPoint x="2030" y="-1970" />
              <mxPoint x="2030" y="-2550" />
            </Array>
            <mxPoint as="offset" />
          </mxGeometry>
        </mxCell>
        <mxCell id="n3vaW72_bKXSgv0cMjPY-3" value="1" style="endArrow=close;html=1;endSize=12;startArrow=diamondThin;startSize=14;startFill=0;edgeStyle=orthogonalEdgeStyle;align=left;verticalAlign=bottom;rounded=0;exitX=0;exitY=0.5;exitDx=0;exitDy=0;entryX=0;entryY=0.5;entryDx=0;entryDy=0;fillColor=#f8cecc;strokeColor=#b85450;fontColor=default;" parent="WIyWlLk6GJQsqaUBKTNV-1" source="AA-iRr0cbiNNM53GynT9-29" target="DvexnknoC_lyuImm-Q-N-10" edge="1">
          <mxGeometry x="-0.9289" y="2" relative="1" as="geometry">
            <mxPoint x="410" y="-1890" as="sourcePoint" />
            <mxPoint x="570" y="-1890" as="targetPoint" />
            <Array as="points">
              <mxPoint x="160" y="-1852" />
              <mxPoint x="160" y="-2582" />
            </Array>
            <mxPoint as="offset" />
          </mxGeometry>
        </mxCell>
        <mxCell id="n3vaW72_bKXSgv0cMjPY-4" value="40" style="endArrow=close;html=1;endSize=12;startArrow=diamondThin;startSize=14;startFill=0;edgeStyle=orthogonalEdgeStyle;align=left;verticalAlign=bottom;rounded=0;exitX=0.25;exitY=0;exitDx=0;exitDy=0;entryX=0.75;entryY=1;entryDx=0;entryDy=0;fillColor=#fff2cc;strokeColor=#d6b656;fontColor=default;" parent="WIyWlLk6GJQsqaUBKTNV-1" source="cQWzsJ5Ow6czlzq-uUI3-4" target="EF45_xodWaJwRy3mG7dY-5" edge="1">
          <mxGeometry x="-0.92" y="-12" relative="1" as="geometry">
            <mxPoint x="980" y="-2170" as="sourcePoint" />
            <mxPoint x="1140" y="-2170" as="targetPoint" />
            <Array as="points">
              <mxPoint x="1428" y="-1990" />
              <mxPoint x="920" y="-1990" />
              <mxPoint x="920" y="-2420" />
              <mxPoint x="758" y="-2420" />
            </Array>
            <mxPoint y="1" as="offset" />
          </mxGeometry>
        </mxCell>
        <mxCell id="n3vaW72_bKXSgv0cMjPY-11" value="1" style="endArrow=close;html=1;endSize=12;startArrow=diamondThin;startSize=14;startFill=1;edgeStyle=orthogonalEdgeStyle;align=left;verticalAlign=bottom;rounded=0;exitX=0.75;exitY=0;exitDx=0;exitDy=0;entryX=0;entryY=0.5;entryDx=0;entryDy=0;fontColor=default;strokeColor=#4597B0;" parent="WIyWlLk6GJQsqaUBKTNV-1" source="AA-iRr0cbiNNM53GynT9-28" target="DvexnknoC_lyuImm-Q-N-17" edge="1">
          <mxGeometry x="-0.9575" y="-19" relative="1" as="geometry">
            <mxPoint x="870" y="-2010" as="sourcePoint" />
            <mxPoint x="1030" y="-2010" as="targetPoint" />
            <mxPoint as="offset" />
          </mxGeometry>
        </mxCell>
        <mxCell id="n3vaW72_bKXSgv0cMjPY-19" value="1" style="endArrow=close;html=1;endSize=12;startArrow=diamondThin;startSize=14;startFill=0;edgeStyle=orthogonalEdgeStyle;align=left;verticalAlign=bottom;rounded=0;exitX=0;exitY=0.5;exitDx=0;exitDy=0;entryX=0.25;entryY=0;entryDx=0;entryDy=0;fillColor=#dae8fc;strokeColor=#6c8ebf;fontColor=default;" parent="WIyWlLk6GJQsqaUBKTNV-1" source="pGGR8wDG81xiq5hkl2QB-1" target="JLcb8wGAHAgGzzpa8HeB-14" edge="1">
          <mxGeometry x="-0.9828" y="22" relative="1" as="geometry">
            <mxPoint x="960" y="-2430" as="sourcePoint" />
            <mxPoint x="1120" y="-2430" as="targetPoint" />
            <Array as="points">
              <mxPoint x="90" y="-2272" />
              <mxPoint x="90" y="-2790" />
              <mxPoint x="1440" y="-2790" />
            </Array>
            <mxPoint as="offset" />
          </mxGeometry>
        </mxCell>
        <mxCell id="agWhAtr7_035eJzP7spy-3" value="" style="endArrow=none;html=1;rounded=0;entryX=0.5;entryY=0;entryDx=0;entryDy=0;fontColor=default;" parent="WIyWlLk6GJQsqaUBKTNV-1" target="AA-iRr0cbiNNM53GynT9-20" edge="1">
          <mxGeometry width="50" height="50" relative="1" as="geometry">
            <mxPoint x="1476" y="-2293" as="sourcePoint" />
            <mxPoint x="1676" y="-2227" as="targetPoint" />
            <Array as="points">
              <mxPoint x="1676" y="-2293" />
            </Array>
          </mxGeometry>
        </mxCell>
        <mxCell id="agWhAtr7_035eJzP7spy-4" value="Extends" style="edgeLabel;html=1;align=center;verticalAlign=middle;resizable=0;points=[];fontColor=default;" parent="agWhAtr7_035eJzP7spy-3" vertex="1" connectable="0">
          <mxGeometry x="0.3199" y="-2" relative="1" as="geometry">
            <mxPoint x="7" y="51" as="offset" />
          </mxGeometry>
        </mxCell>
        <mxCell id="REw0ulO7InXOu4ISzk6u-0" value="&amp;lt;Interface&amp;gt; CalculateGoal" style="swimlane;fontStyle=1;align=center;verticalAlign=top;childLayout=stackLayout;horizontal=1;startSize=26;horizontalStack=0;resizeParent=1;resizeParentMax=0;resizeLast=0;collapsible=1;marginBottom=0;whiteSpace=wrap;html=1;fontColor=default;" parent="WIyWlLk6GJQsqaUBKTNV-1" vertex="1">
          <mxGeometry x="1670" y="-2470" width="180" height="70" as="geometry" />
        </mxCell>
        <mxCell id="REw0ulO7InXOu4ISzk6u-3" value="+ calculateGoal(Goal, Map&amp;lt;vector, Card&amp;gt;) : int&amp;nbsp;" style="text;strokeColor=none;fillColor=none;align=left;verticalAlign=top;spacingLeft=4;spacingRight=4;overflow=hidden;rotatable=0;points=[[0,0.5],[1,0.5]];portConstraint=eastwest;whiteSpace=wrap;html=1;fontColor=default;" parent="REw0ulO7InXOu4ISzk6u-0" vertex="1">
          <mxGeometry y="26" width="180" height="44" as="geometry" />
        </mxCell>
        <mxCell id="REw0ulO7InXOu4ISzk6u-4" value="" style="endArrow=block;dashed=1;endFill=0;endSize=12;html=1;rounded=0;exitX=0.431;exitY=1.015;exitDx=0;exitDy=0;exitPerimeter=0;fontColor=default;" parent="WIyWlLk6GJQsqaUBKTNV-1" source="AA-iRr0cbiNNM53GynT9-29" edge="1">
          <mxGeometry width="160" relative="1" as="geometry">
            <mxPoint x="848.8400000000001" y="-1717.5699999999997" as="sourcePoint" />
            <mxPoint x="1850" y="-2422" as="targetPoint" />
            <Array as="points">
              <mxPoint x="849" y="-1410" />
              <mxPoint x="2230" y="-1420" />
              <mxPoint x="2230" y="-2422" />
            </Array>
          </mxGeometry>
        </mxCell>
        <mxCell id="REw0ulO7InXOu4ISzk6u-6" value="" style="endArrow=block;dashed=1;endFill=0;endSize=12;html=1;rounded=0;exitX=0.503;exitY=1.047;exitDx=0;exitDy=0;exitPerimeter=0;entryX=0.51;entryY=1.079;entryDx=0;entryDy=0;entryPerimeter=0;fontColor=default;" parent="WIyWlLk6GJQsqaUBKTNV-1" source="cQWzsJ5Ow6czlzq-uUI3-7" target="REw0ulO7InXOu4ISzk6u-3" edge="1">
          <mxGeometry width="160" relative="1" as="geometry">
            <mxPoint x="858.8400000000001" y="-1707.5699999999997" as="sourcePoint" />
            <mxPoint x="1860" y="-2412" as="targetPoint" />
            <Array as="points">
              <mxPoint x="1496" y="-1480" />
              <mxPoint x="2120" y="-1480" />
              <mxPoint x="2120" y="-2330" />
              <mxPoint x="1762" y="-2330" />
            </Array>
          </mxGeometry>
        </mxCell>
        <mxCell id="DYIzedRVmLQqtgvzEhJK-1" value="Extends" style="endArrow=block;endSize=16;endFill=0;html=1;rounded=0;exitX=0.5;exitY=0;exitDx=0;exitDy=0;entryX=0.5;entryY=1.095;entryDx=0;entryDy=0;entryPerimeter=0;fontColor=default;" edge="1" parent="WIyWlLk6GJQsqaUBKTNV-1" source="JLcb8wGAHAgGzzpa8HeB-14" target="JLcb8wGAHAgGzzpa8HeB-12">
          <mxGeometry width="160" relative="1" as="geometry">
            <mxPoint x="1480" y="-2800" as="sourcePoint" />
            <mxPoint x="1640" y="-2800" as="targetPoint" />
            <Array as="points">
              <mxPoint x="1480" y="-2800" />
              <mxPoint x="1611" y="-2800" />
            </Array>
          </mxGeometry>
        </mxCell>
        <mxCell id="DYIzedRVmLQqtgvzEhJK-3" value="" style="endArrow=none;html=1;edgeStyle=orthogonalEdgeStyle;rounded=0;entryX=0.5;entryY=0;entryDx=0;entryDy=0;fontColor=default;" edge="1" parent="WIyWlLk6GJQsqaUBKTNV-1" target="EF45_xodWaJwRy3mG7dY-0">
          <mxGeometry relative="1" as="geometry">
            <mxPoint x="1610" y="-2800" as="sourcePoint" />
            <mxPoint x="1770" y="-2800" as="targetPoint" />
          </mxGeometry>
        </mxCell>
        <mxCell id="DYIzedRVmLQqtgvzEhJK-4" value="Extends" style="edgeLabel;resizable=0;html=1;align=left;verticalAlign=bottom;fontColor=default;" connectable="0" vertex="1" parent="DYIzedRVmLQqtgvzEhJK-3">
          <mxGeometry x="-1" relative="1" as="geometry">
            <mxPoint x="80" as="offset" />
          </mxGeometry>
        </mxCell>
        <mxCell id="DYIzedRVmLQqtgvzEhJK-10" value="" style="endArrow=diamondThin;endFill=0;endSize=24;html=1;rounded=0;entryX=1;entryY=0.5;entryDx=0;entryDy=0;exitX=0.54;exitY=1.103;exitDx=0;exitDy=0;exitPerimeter=0;fillColor=#008a00;strokeColor=#005700;fontColor=default;" edge="1" parent="WIyWlLk6GJQsqaUBKTNV-1" source="EF45_xodWaJwRy3mG7dY-1" target="DvexnknoC_lyuImm-Q-N-5">
          <mxGeometry width="160" relative="1" as="geometry">
            <mxPoint x="1130" y="-2665.11" as="sourcePoint" />
            <mxPoint x="1290" y="-2665.11" as="targetPoint" />
            <Array as="points">
              <mxPoint x="1793" y="-2582" />
            </Array>
          </mxGeometry>
        </mxCell>
        <mxCell id="DYIzedRVmLQqtgvzEhJK-14" value="1" style="edgeLabel;html=1;align=center;verticalAlign=middle;resizable=0;points=[];fontColor=default;" vertex="1" connectable="0" parent="DYIzedRVmLQqtgvzEhJK-10">
          <mxGeometry x="0.9174" relative="1" as="geometry">
            <mxPoint y="-13" as="offset" />
          </mxGeometry>
        </mxCell>
        <mxCell id="DYIzedRVmLQqtgvzEhJK-16" value="" style="endArrow=diamondThin;endFill=0;endSize=24;html=1;rounded=0;exitX=0;exitY=0.5;exitDx=0;exitDy=0;fillColor=#008a00;strokeColor=#005700;entryX=0.778;entryY=-0.538;entryDx=0;entryDy=0;entryPerimeter=0;fontColor=default;" edge="1" parent="WIyWlLk6GJQsqaUBKTNV-1" source="EF45_xodWaJwRy3mG7dY-1" target="E-_rWRL8sggAh93KuL3w-0">
          <mxGeometry width="160" relative="1" as="geometry">
            <mxPoint x="1512" y="-2730" as="sourcePoint" />
            <mxPoint x="650" y="-2720" as="targetPoint" />
            <Array as="points">
              <mxPoint x="1630" y="-2651" />
              <mxPoint x="1630" y="-2760" />
              <mxPoint x="765" y="-2760" />
            </Array>
          </mxGeometry>
        </mxCell>
        <mxCell id="DYIzedRVmLQqtgvzEhJK-17" value="1" style="edgeLabel;html=1;align=center;verticalAlign=middle;resizable=0;points=[];fontColor=default;" vertex="1" connectable="0" parent="DYIzedRVmLQqtgvzEhJK-16">
          <mxGeometry x="0.9174" relative="1" as="geometry">
            <mxPoint y="-13" as="offset" />
          </mxGeometry>
        </mxCell>
        <mxCell id="DYIzedRVmLQqtgvzEhJK-19" value="Field" style="swimlane;fontStyle=1;align=center;verticalAlign=top;childLayout=stackLayout;horizontal=1;startSize=26;horizontalStack=0;resizeParent=1;resizeParentMax=0;resizeLast=0;collapsible=1;marginBottom=0;whiteSpace=wrap;html=1;fontColor=default;" vertex="1" parent="WIyWlLk6GJQsqaUBKTNV-1">
          <mxGeometry x="250" y="-1690" width="210" height="60" as="geometry" />
        </mxCell>
        <mxCell id="DYIzedRVmLQqtgvzEhJK-21" value="" style="line;strokeWidth=1;fillColor=none;align=left;verticalAlign=middle;spacingTop=-1;spacingLeft=3;spacingRight=3;rotatable=0;labelPosition=right;points=[];portConstraint=eastwest;strokeColor=inherit;fontColor=default;" vertex="1" parent="DYIzedRVmLQqtgvzEhJK-19">
          <mxGeometry y="26" width="210" height="8" as="geometry" />
        </mxCell>
        <mxCell id="DYIzedRVmLQqtgvzEhJK-22" value="+ addCardToField(Card):void" style="text;strokeColor=none;fillColor=none;align=left;verticalAlign=top;spacingLeft=4;spacingRight=4;overflow=hidden;rotatable=0;points=[[0,0.5],[1,0.5]];portConstraint=eastwest;whiteSpace=wrap;html=1;fontColor=default;" vertex="1" parent="DYIzedRVmLQqtgvzEhJK-19">
          <mxGeometry y="34" width="210" height="26" as="geometry" />
        </mxCell>
        <mxCell id="DYIzedRVmLQqtgvzEhJK-23" value="" style="endArrow=diamondThin;endFill=0;endSize=24;html=1;rounded=0;exitX=0.5;exitY=0;exitDx=0;exitDy=0;fillColor=#d80073;strokeColor=#A50040;fontColor=default;" edge="1" parent="WIyWlLk6GJQsqaUBKTNV-1" source="DYIzedRVmLQqtgvzEhJK-19">
          <mxGeometry width="160" relative="1" as="geometry">
            <mxPoint x="550" y="-1830" as="sourcePoint" />
            <mxPoint x="710" y="-1830" as="targetPoint" />
            <Array as="points">
              <mxPoint x="360" y="-1830" />
            </Array>
          </mxGeometry>
        </mxCell>
        <mxCell id="DYIzedRVmLQqtgvzEhJK-29" value="1...N" style="edgeLabel;html=1;align=center;verticalAlign=middle;resizable=0;points=[];fontColor=default;" vertex="1" connectable="0" parent="DYIzedRVmLQqtgvzEhJK-23">
          <mxGeometry x="0.821" y="-4" relative="1" as="geometry">
            <mxPoint x="7" y="14" as="offset" />
          </mxGeometry>
        </mxCell>
        <mxCell id="DYIzedRVmLQqtgvzEhJK-25" value="" style="endArrow=diamondThin;endFill=1;endSize=24;html=1;rounded=0;entryX=0.981;entryY=-0.231;entryDx=0;entryDy=0;entryPerimeter=0;exitX=0;exitY=0.5;exitDx=0;exitDy=0;fillColor=#fa6800;strokeColor=#C73500;fontColor=default;" edge="1" parent="WIyWlLk6GJQsqaUBKTNV-1" source="u47IoDtROjoDoX3tb5BJ-1" target="DYIzedRVmLQqtgvzEhJK-22">
          <mxGeometry width="160" relative="1" as="geometry">
            <mxPoint x="500" y="-1680" as="sourcePoint" />
            <mxPoint x="660" y="-1680" as="targetPoint" />
            <Array as="points">
              <mxPoint x="1040" y="-1482" />
              <mxPoint x="1040" y="-1660" />
            </Array>
          </mxGeometry>
        </mxCell>
        <mxCell id="DYIzedRVmLQqtgvzEhJK-26" value="1" style="edgeLabel;html=1;align=center;verticalAlign=middle;resizable=0;points=[];fontColor=default;" vertex="1" connectable="0" parent="DYIzedRVmLQqtgvzEhJK-25">
          <mxGeometry x="0.7757" y="3" relative="1" as="geometry">
            <mxPoint x="-34" y="3" as="offset" />
          </mxGeometry>
        </mxCell>
        <mxCell id="DYIzedRVmLQqtgvzEhJK-28" value="" style="endArrow=diamondThin;endFill=1;endSize=24;html=1;rounded=0;entryX=0.1;entryY=0;entryDx=0;entryDy=0;exitX=0;exitY=0.5;exitDx=0;exitDy=0;entryPerimeter=0;fillColor=#d5e8d4;strokeColor=#82B366;gradientColor=#97d077;fontColor=default;" edge="1" parent="WIyWlLk6GJQsqaUBKTNV-1" source="JLcb8wGAHAgGzzpa8HeB-2" target="DYIzedRVmLQqtgvzEhJK-19">
          <mxGeometry width="160" relative="1" as="geometry">
            <mxPoint x="100" y="-1800" as="sourcePoint" />
            <mxPoint x="260" y="-1800" as="targetPoint" />
            <Array as="points">
              <mxPoint x="280" y="-3007" />
            </Array>
          </mxGeometry>
        </mxCell>
        <mxCell id="DYIzedRVmLQqtgvzEhJK-30" value="1" style="edgeLabel;html=1;align=center;verticalAlign=middle;resizable=0;points=[];fontColor=default;" vertex="1" connectable="0" parent="DYIzedRVmLQqtgvzEhJK-28">
          <mxGeometry x="0.939" relative="1" as="geometry">
            <mxPoint y="1" as="offset" />
          </mxGeometry>
        </mxCell>
        <mxCell id="DYIzedRVmLQqtgvzEhJK-31" value="ResourceCounter" style="swimlane;fontStyle=1;align=center;verticalAlign=top;childLayout=stackLayout;horizontal=1;startSize=26;horizontalStack=0;resizeParent=1;resizeParentMax=0;resizeLast=0;collapsible=1;marginBottom=0;whiteSpace=wrap;html=1;fontColor=default;" vertex="1" parent="WIyWlLk6GJQsqaUBKTNV-1">
          <mxGeometry x="560" y="-1570" width="160" height="86" as="geometry" />
        </mxCell>
        <mxCell id="DYIzedRVmLQqtgvzEhJK-32" value="-counter: int" style="text;strokeColor=none;fillColor=none;align=left;verticalAlign=top;spacingLeft=4;spacingRight=4;overflow=hidden;rotatable=0;points=[[0,0.5],[1,0.5]];portConstraint=eastwest;whiteSpace=wrap;html=1;fontColor=default;" vertex="1" parent="DYIzedRVmLQqtgvzEhJK-31">
          <mxGeometry y="26" width="160" height="26" as="geometry" />
        </mxCell>
        <mxCell id="DYIzedRVmLQqtgvzEhJK-33" value="" style="line;strokeWidth=1;fillColor=none;align=left;verticalAlign=middle;spacingTop=-1;spacingLeft=3;spacingRight=3;rotatable=0;labelPosition=right;points=[];portConstraint=eastwest;strokeColor=inherit;fontColor=default;" vertex="1" parent="DYIzedRVmLQqtgvzEhJK-31">
          <mxGeometry y="52" width="160" height="8" as="geometry" />
        </mxCell>
        <mxCell id="DYIzedRVmLQqtgvzEhJK-34" value="+getCounter(Resource):int" style="text;strokeColor=none;fillColor=none;align=left;verticalAlign=top;spacingLeft=4;spacingRight=4;overflow=hidden;rotatable=0;points=[[0,0.5],[1,0.5]];portConstraint=eastwest;whiteSpace=wrap;html=1;fontColor=default;" vertex="1" parent="DYIzedRVmLQqtgvzEhJK-31">
          <mxGeometry y="60" width="160" height="26" as="geometry" />
        </mxCell>
        <mxCell id="DYIzedRVmLQqtgvzEhJK-35" value="" style="endArrow=diamondThin;endFill=0;endSize=24;html=1;rounded=0;entryX=0.216;entryY=1.01;entryDx=0;entryDy=0;entryPerimeter=0;exitX=1;exitY=0.5;exitDx=0;exitDy=0;fillColor=#e1d5e7;strokeColor=#9673a6;fontColor=default;" edge="1" parent="WIyWlLk6GJQsqaUBKTNV-1" source="DYIzedRVmLQqtgvzEhJK-31" target="AA-iRr0cbiNNM53GynT9-29">
          <mxGeometry width="160" relative="1" as="geometry">
            <mxPoint x="610" y="-1720" as="sourcePoint" />
            <mxPoint x="770" y="-1720" as="targetPoint" />
            <Array as="points">
              <mxPoint x="780" y="-1527" />
            </Array>
          </mxGeometry>
        </mxCell>
        <mxCell id="DYIzedRVmLQqtgvzEhJK-36" value="7" style="edgeLabel;html=1;align=center;verticalAlign=middle;resizable=0;points=[];fontColor=default;" vertex="1" connectable="0" parent="DYIzedRVmLQqtgvzEhJK-35">
          <mxGeometry x="0.6388" y="6" relative="1" as="geometry">
            <mxPoint as="offset" />
          </mxGeometry>
        </mxCell>
        <mxCell id="DYIzedRVmLQqtgvzEhJK-37" value="" style="endArrow=diamondThin;endFill=1;endSize=24;html=1;rounded=0;entryX=0;entryY=0.5;entryDx=0;entryDy=0;exitX=0.005;exitY=0.972;exitDx=0;exitDy=0;exitPerimeter=0;fillColor=#fff2cc;strokeColor=#d6b656;fontColor=default;" edge="1" parent="WIyWlLk6GJQsqaUBKTNV-1" source="JLcb8wGAHAgGzzpa8HeB-12">
          <mxGeometry width="160" relative="1" as="geometry">
            <mxPoint x="1530" y="-2900" as="sourcePoint" />
            <mxPoint x="560.48" y="-1518.99" as="targetPoint" />
            <Array as="points">
              <mxPoint x="120" y="-2860" />
              <mxPoint x="120.48" y="-1518.99" />
            </Array>
          </mxGeometry>
        </mxCell>
        <mxCell id="DYIzedRVmLQqtgvzEhJK-38" value="1" style="edgeLabel;html=1;align=center;verticalAlign=middle;resizable=0;points=[];fontColor=default;" vertex="1" connectable="0" parent="DYIzedRVmLQqtgvzEhJK-37">
          <mxGeometry x="0.9709" y="1" relative="1" as="geometry">
            <mxPoint as="offset" />
          </mxGeometry>
        </mxCell>
        <mxCell id="DYIzedRVmLQqtgvzEhJK-47" value="" style="endArrow=diamondThin;endFill=1;endSize=24;html=1;rounded=0;entryX=0.5;entryY=0;entryDx=0;entryDy=0;exitX=1.072;exitY=-0.156;exitDx=0;exitDy=0;exitPerimeter=0;strokeColor=#82B366;" edge="1" parent="WIyWlLk6GJQsqaUBKTNV-1" source="JLcb8wGAHAgGzzpa8HeB-2" target="AA-iRr0cbiNNM53GynT9-28">
          <mxGeometry width="160" relative="1" as="geometry">
            <mxPoint x="750" y="-1970" as="sourcePoint" />
            <mxPoint x="910" y="-1970" as="targetPoint" />
            <Array as="points">
              <mxPoint x="2200" y="-3060" />
              <mxPoint x="2200" y="-2020" />
              <mxPoint x="870" y="-2010" />
            </Array>
          </mxGeometry>
        </mxCell>
        <mxCell id="DYIzedRVmLQqtgvzEhJK-49" value="3" style="edgeLabel;html=1;align=center;verticalAlign=middle;resizable=0;points=[];" vertex="1" connectable="0" parent="DYIzedRVmLQqtgvzEhJK-47">
          <mxGeometry x="0.9746" y="-1" relative="1" as="geometry">
            <mxPoint y="1" as="offset" />
          </mxGeometry>
        </mxCell>
        <mxCell id="DYIzedRVmLQqtgvzEhJK-50" value="2" style="endArrow=diamondThin;endFill=1;endSize=24;html=1;rounded=0;exitX=0.697;exitY=1.269;exitDx=0;exitDy=0;exitPerimeter=0;fillColor=#e3c800;strokeColor=#4597B0;" edge="1" parent="WIyWlLk6GJQsqaUBKTNV-1" source="DvexnknoC_lyuImm-Q-N-19">
          <mxGeometry x="0.8921" y="18" width="160" relative="1" as="geometry">
            <mxPoint x="1350" y="-1940" as="sourcePoint" />
            <mxPoint x="1514" y="-1900" as="targetPoint" />
            <Array as="points">
              <mxPoint x="1512" y="-1970" />
              <mxPoint x="1514" y="-1930" />
            </Array>
            <mxPoint as="offset" />
          </mxGeometry>
        </mxCell>
        <mxCell id="DYIzedRVmLQqtgvzEhJK-52" value="" style="endArrow=diamondThin;endFill=1;endSize=24;html=1;rounded=0;fillColor=#d5e8d4;strokeColor=#82B366;gradientColor=#97d077;fontColor=default;" edge="1" parent="WIyWlLk6GJQsqaUBKTNV-1">
          <mxGeometry width="160" relative="1" as="geometry">
            <mxPoint x="750" y="-2910" as="sourcePoint" />
            <mxPoint x="1630" y="-1570" as="targetPoint" />
            <Array as="points">
              <mxPoint x="1270" y="-2910" />
              <mxPoint x="1270" y="-2950" />
              <mxPoint x="1270" y="-3020" />
              <mxPoint x="2030" y="-3020" />
              <mxPoint x="2340" y="-3020" />
              <mxPoint x="2340" y="-1570" />
            </Array>
          </mxGeometry>
        </mxCell>
        <mxCell id="DYIzedRVmLQqtgvzEhJK-54" value="&lt;div&gt;4&lt;/div&gt;&lt;div&gt;&lt;br&gt;&lt;/div&gt;" style="edgeLabel;html=1;align=center;verticalAlign=middle;resizable=0;points=[];" vertex="1" connectable="0" parent="DYIzedRVmLQqtgvzEhJK-52">
          <mxGeometry x="0.935" y="3" relative="1" as="geometry">
            <mxPoint x="-56" y="-3" as="offset" />
          </mxGeometry>
        </mxCell>
        <mxCell id="DYIzedRVmLQqtgvzEhJK-56" value="1" style="endArrow=close;html=1;endSize=12;startArrow=diamondThin;startSize=14;startFill=1;edgeStyle=orthogonalEdgeStyle;align=left;verticalAlign=bottom;rounded=0;exitX=0.006;exitY=0.173;exitDx=0;exitDy=0;exitPerimeter=0;fontColor=default;" edge="1" parent="WIyWlLk6GJQsqaUBKTNV-1">
          <mxGeometry x="-0.7554" y="33" relative="1" as="geometry">
            <mxPoint x="1360.5" y="-1833" as="sourcePoint" />
            <mxPoint x="1029.5" y="-1832" as="targetPoint" />
            <mxPoint x="-1" as="offset" />
          </mxGeometry>
        </mxCell>
        <mxCell id="DYIzedRVmLQqtgvzEhJK-60" value="&lt;b&gt;&lt;font style=&quot;font-size: 18px;&quot;&gt;GameLogic&lt;/font&gt;&lt;/b&gt;" style="text;align=center;fontStyle=1;verticalAlign=middle;spacingLeft=3;spacingRight=3;strokeColor=none;rotatable=0;points=[[0,0.5],[1,0.5]];portConstraint=eastwest;html=1;" vertex="1" parent="WIyWlLk6GJQsqaUBKTNV-1">
          <mxGeometry x="300.5" y="-2000" width="80" height="26" as="geometry" />
        </mxCell>
      </root>
    </mxGraphModel>
  </diagram>
</mxfile>
